<svg width="200" height="200" viewBox="0 0 200 200" xmlns="http://www.w3.org/2000/svg">
    <defs>
        <linearGradient id="grad1" x1="0%" y1="0%" x2="100%" y2="100%">
            <stop offset="0%" style="stop-color:#063970;stop-opacity:1" />
            <stop offset="20%" style="stop-color:#063970;stop-opacity:1" />
            <stop offset="60%" style="stop-color:#ffffff;stop-opacity:1" />
            <stop offset="100%" style="stop-color:#063970;stop-opacity:1" />
        </linearGradient>
    </defs>
    <g transform="translate(100,100)">
        <circle cx="0" cy="0" r="10" fill="url(#grad1)" />
        <path d="M 0 -60 C -10 -50, -10 -30, 0 -20 C 10 -30, 10 -50, 0 -60 M -50 0 C -40 10, -20 10, -10 0 C -20 -10, -40 -10, -50 0 M 0 60 C 10 50, 10 30, 0 20 C -10 30, -10 50, 0 60 M 50 0 C 40 -10, 20 -10, 10 0 C 20 10, 40 10, 50 0" stroke="url(#grad1)" stroke-width="5" fill="none" />
        <ellipse cx="0" cy="0" rx="70" ry="20" fill="none" stroke="url(#grad1)" stroke-width="5" transform="rotate(45)" />
        <ellipse cx="0" cy="0" rx="70" ry="20" fill="none" stroke="url(#grad1)" stroke-width="5" transform="rotate(-45)" />
    </g>
</svg>
